<svg data-v-fde0c5aa="" xmlns="http://www.w3.org/2000/svg" viewBox="0 0 300 300" class="iconAbove"><!----><defs data-v-fde0c5aa=""><!----></defs><rect data-v-fde0c5aa="" fill="#00acff" x="0" y="0" width="300px" height="300px" class="logo-background-square"></rect><defs data-v-fde0c5aa=""><!----></defs><g data-v-fde0c5aa="" id="d06a3190-ae85-4148-9344-d0b5362f69e2" fill="#ffffff" transform="matrix(5.426842012691931,0,0,5.426842012691931,20,170.911917855578)"><path d="M2.74 13.29L1.32 8.34L1.32 13.29L0 13.29L0 2.97L1.16 2.97L3.25 10.23L5.32 2.97L6.48 2.97L6.48 13.29L5.17 13.29L5.17 8.34L3.74 13.29ZM11.34 10.42L9.55 10.42L8.89 13.30L7.53 13.30L9.91 2.98L10.96 2.98L13.37 13.30L12.00 13.30ZM9.86 9.10L11.03 9.10L10.44 6.57ZM13.65 5.92C13.65 5.01 13.85 4.30 14.24 3.79C14.53 3.42 15.09 2.98 16.10 2.98C17.11 2.98 17.65 3.42 17.95 3.79C18.35 4.31 18.55 5.01 18.55 5.92L18.55 6.58L17.22 6.58L17.22 5.92C17.22 5.12 17.04 4.69 16.81 4.49C16.58 4.30 16.28 4.30 16.10 4.30C15.89 4.30 15.62 4.30 15.39 4.49C15.15 4.69 14.97 5.12 14.97 5.92L14.97 10.35C14.97 10.95 15.08 11.40 15.29 11.66C15.33 11.73 15.41 11.80 15.54 11.87C15.67 11.94 15.85 11.98 16.10 11.98C16.60 11.98 16.80 11.79 16.91 11.66C17.12 11.38 17.22 10.95 17.22 10.35L17.22 9.69L18.55 9.69L18.55 10.35C18.55 11.26 18.35 11.96 17.95 12.47C17.65 12.85 17.11 13.30 16.10 13.30C15.60 13.30 15.22 13.19 14.91 13.02C14.60 12.87 14.39 12.66 14.24 12.47C13.85 11.97 13.65 11.26 13.65 10.35ZM19.08 13.30L19.08 2.98L21.14 2.98C22.92 2.98 23.76 4.07 23.76 5.96L23.76 10.30C23.76 12.19 22.92 13.30 21.14 13.30ZM20.40 4.30L20.40 11.98L21.14 11.98C21.48 11.98 21.80 11.94 22.04 11.72C22.26 11.49 22.43 11.07 22.43 10.30L22.43 5.96C22.43 5.19 22.26 4.77 22.04 4.55C21.80 4.33 21.48 4.30 21.14 4.30ZM28.38 10.42L26.59 10.42L25.93 13.30L24.57 13.30L26.95 2.98L28 2.98L30.41 13.30L29.04 13.30ZM26.89 9.10L28.07 9.10L27.48 6.57ZM35.48 13.29L34.15 13.29L34.15 10.23C34.15 9.32 33.71 8.88 32.83 8.88L32.00 8.88L32.00 13.29L30.69 13.29L30.69 2.97L32.83 2.97C34.61 2.97 35.45 3.99 35.45 5.91C35.45 6.86 35.24 7.59 34.83 8.08C34.82 8.09 34.79 8.12 34.78 8.15C34.75 8.18 34.72 8.20 34.69 8.22C35.20 8.71 35.48 9.38 35.48 10.23ZM32.00 7.55L32.83 7.55C33.18 7.55 33.43 7.50 33.57 7.42C33.70 7.34 33.78 7.27 33.82 7.22C34.03 6.96 34.13 6.52 34.13 5.91C34.13 5.22 34.02 4.82 33.81 4.58C33.59 4.35 33.26 4.30 32.83 4.30L32.00 4.30ZM36.53 2.97L42.36 2.97L42.36 4.30L40.11 4.30L40.11 13.29L38.78 13.29L38.78 4.30L36.53 4.30ZM42.98 9.70L44.30 9.70L44.30 10.36C44.30 10.96 44.41 11.40 44.62 11.66C44.66 11.73 44.74 11.79 44.87 11.86C45.00 11.93 45.18 11.97 45.44 11.97C45.95 11.97 46.23 11.72 46.40 11.41C46.55 11.10 46.58 10.71 46.58 10.43C46.58 9.94 46.41 9.62 46.17 9.38C45.93 9.16 45.61 9.00 45.32 8.88L45.07 8.76C44.77 8.64 44.27 8.43 43.82 7.99C43.26 7.45 42.98 6.76 42.98 5.92C42.98 5.04 43.22 4.30 43.67 3.78C44.10 3.28 44.72 2.97 45.44 2.97C46.45 2.97 47.01 3.40 47.31 3.78C47.71 4.30 47.91 5.01 47.91 5.92L47.91 6.58L46.58 6.58L46.58 5.92C46.58 5.12 46.40 4.69 46.16 4.49C45.92 4.30 45.63 4.30 45.44 4.30C44.90 4.30 44.63 4.59 44.48 4.96C44.31 5.32 44.30 5.74 44.30 5.92C44.30 6.41 44.46 6.73 44.70 6.99C44.94 7.24 45.26 7.42 45.60 7.55L45.82 7.64C46.09 7.76 46.59 7.94 47.04 8.37C47.61 8.90 47.91 9.59 47.91 10.43C47.91 12.01 47.03 13.29 45.44 13.29C43.81 13.29 42.98 12.21 42.98 10.36Z"></path></g><defs data-v-fde0c5aa=""><!----></defs><g data-v-fde0c5aa="" id="92fade49-6234-4d78-81d4-bf4b610a4b8f" stroke="none" fill="#010033" transform="matrix(1.3797723315283654,0,0,1.3797723315283654,81.01149395527027,43.979277409854745)"><path d="M90.416 89.348l-6.594-6.593.077-.077a.75.75 0 0 0 .161-.82l-2.062-4.922a.742.742 0 0 0-.186-.264l-24.44-22.309-21.131-21.127.211-11.381c.037-2.025-.67-3.778-2.102-5.21l-5.166-5.166a7.16 7.16 0 0 0-7.892-1.528l-5.743 2.447c-1.463.623-2.521 1.681-3.144 3.144L9.96 21.284c-1.173 2.752-.588 5.776 1.527 7.892l5.166 5.166c1.396 1.396 3.099 2.103 5.061 2.103l11.527-.212 21.103 21.102 22.337 24.472a.752.752 0 0 0 .266.187l4.934 2.049a.748.748 0 0 0 .818-.162l.063-.063 6.594 6.593a.748.748 0 0 0 1.06 0 .753.753 0 0 0 0-1.063zM22.077 11.791a5.26 5.26 0 0 1 2.072-.433c1.345 0 2.631.545 3.621 1.535l5.166 5.166c1.033 1.033 1.543 2.298 1.516 3.759l-.179 9.655-4.259-3.618a.747.747 0 0 0-1.016.041l-.017.017-13.316-13.318c.205-.135.427-.255.668-.357l5.744-2.447zm-.363 22.653c-1.412 0-2.64-.51-3.646-1.517l-5.166-5.166c-1.526-1.526-1.948-3.708-1.102-5.694l2.446-5.742c.103-.241.223-.464.358-.669l13.317 13.317-.114.114a.75.75 0 0 0-.032 1.026l3.663 4.151-9.612.178-.112.002zm12.056.197l-4.403-4.991.205-.204 5.044 4.282 21.161 21.16-.879.88L33.77 34.641zm22.164 22.212l.927-.927L80.223 77.25l-2.964 2.965-21.325-23.362zm26.058 25.611l-3.435-1.427 2.49-2.491 1.436 3.427-.491.491z"></path></g><!----></svg>